<?xml version="1.0" encoding="iso-8859-1"?>
<!-- Generator: Adobe Illustrator 19.0.0, SVG Export Plug-In . SVG Version: 6.00 Build 0)  -->
<svg version="1.1" id="Layer_1" xmlns="http://www.w3.org/2000/svg" xmlns:xlink="http://www.w3.org/1999/xlink" x="0px" y="0px"
	 viewBox="0 0 512 512" style="enable-background:new 0 0 512 512;" xml:space="preserve">
<g>
	<g>
		<path d="M153.6,179.2h-51.2c-14.14,0-25.6,11.46-25.6,25.6v153.6c0,14.14,11.46,25.6,25.6,25.6h51.2c14.14,0,25.6-11.46,25.6-25.6
			V204.8C179.2,190.66,167.74,179.2,153.6,179.2z M153.6,358.4h-51.2V204.8h51.2V358.4z"/>
	</g>
</g>
<g>
	<g>
		<path d="M383.855,162.099c-4.855-5.41-11.785-8.499-19.055-8.499c-7.27,0-14.2,3.089-19.055,8.499
			c-2.739,3.046-7.347,8.303-12.945,14.916V128c0-6.793-2.697-13.303-7.501-18.099L281.6,66.193V25.6C281.6,11.46,270.14,0,256,0
			h-76.8c-14.14,0-25.6,11.46-25.6,25.6v38.895L35.209,159.206c-6.076,4.864-9.609,12.22-9.609,19.994v307.2
			c0,14.14,11.46,25.6,25.6,25.6h256c14.14,0,25.6-11.46,25.6-25.6v-30.413c10.266,2.816,20.856,4.813,32,4.813
			c67.055,0,121.6-54.554,121.6-121.6C486.4,279.407,400.981,181.188,383.855,162.099z M179.2,25.6H256v25.6h-76.8V25.6z
			 M307.2,486.4h-256V179.2l128-102.4H256l51.2,51.2v80.905c-29.542,38.861-64,92.305-64,130.295c0,46.106,26.086,85.811,64,106.419
			V486.4z M364.8,435.2c-53.018,0-96-42.982-96-96c0-53.018,96-160,96-160s96,106.982,96,160
			C460.8,392.218,417.818,435.2,364.8,435.2z"/>
	</g>
</g>
<g>
</g>
<g>
</g>
<g>
</g>
<g>
</g>
<g>
</g>
<g>
</g>
<g>
</g>
<g>
</g>
<g>
</g>
<g>
</g>
<g>
</g>
<g>
</g>
<g>
</g>
<g>
</g>
<g>
</g>
</svg>
