<svg width="27" height="23" viewBox="0 0 27 23" fill="none" xmlns="http://www.w3.org/2000/svg">
<path d="M25 5.77273L25.914 6.1785L26.5381 4.77273H25V5.77273ZM20.4595 16V17H21.1096L21.3734 16.4058L20.4595 16ZM8.13513 16L7.14308 16.1258L7.25397 17H8.13513V16ZM6.83784 5.77273L7.82989 5.64689L7.77968 5.25107L7.47078 4.99853L6.83784 5.77273ZM12.6757 6.77273H25V4.77273H12.6757V6.77273ZM24.086 5.36696L19.5455 15.5942L21.3734 16.4058L25.914 6.1785L24.086 5.36696ZM20.4595 15H8.13513V17H20.4595V15ZM9.12719 15.8742L7.82989 5.64689L5.84579 5.89857L7.14308 16.1258L9.12719 15.8742ZM7.47078 4.99853L1.63295 0.225803L0.367055 1.7742L6.20489 6.54692L7.47078 4.99853Z" fill="#ffffff"/>
<circle cx="19" cy="21" r="2" fill="#ffffff"/>
<circle cx="10" cy="21" r="2" fill="#ffffff"/>
</svg>
