<svg id="Layer_1" enable-background="new 0 0 512 512" height="512" viewBox="0 0 512 512" width="512" xmlns="http://www.w3.org/2000/svg"><path d="m440.594 153.053c-33.986-46.069-67.433-82.718-68.84-84.256l-14.754-16.12-14.754 16.121c-.933 1.02-15.961 17.489-35.888 41.897-20.029-24.578-35.045-41.054-35.803-41.883l-14.765-16.165-14.766 16.164c-.92 1.007-15.554 17.071-35.072 40.975-20.147-24.647-35.258-41.174-36.013-41.999l-14.745-16.087-14.744 16.087c-1.409 1.538-34.904 38.186-68.939 84.255-48.12 65.134-71.511 115.976-71.511 150.258 0 81.32 69.62 157 155.194 157 16.772 0 33.213-2.662 48.962-7.904 16.157 5.758 33.535 8.904 51.634 8.904 17.265 0 34.229-2.839 50.421-8.438.063-.022.12-.051.182-.074 15.868 5.51 32.893 8.512 50.607 8.512 85.467 0 155-72.33 155-158 0-34.277-23.357-84.115-71.406-149.247zm-400.594 149.247c0-14.082 8.248-51.395 63.484-126.22 19.345-26.206 38.877-49.648 51.712-64.542 6.894 7.998 15.715 18.456 25.384 30.466-2.743 3.619-5.505 7.306-8.272 11.064-47.959 65.128-71.272 114.962-71.272 149.233 0 45.159 19.295 88.504 50.037 116.918-61.617-2.183-111.073-59.037-111.073-116.919zm101 0c0-14.089 8.257-50.413 63.318-125.245 19.246-26.157 38.681-49.564 51.475-64.462 6.844 7.968 15.59 18.375 25.188 30.334-2.514 3.318-5.042 6.692-7.575 10.126-48.049 65.132-71.406 114.97-71.406 149.247 0 45.717 19.804 89.512 51.26 117.968-62.112-1.358-112.26-55.204-112.26-117.968zm216 118c-63.411 0-115-54.386-115-118 0-14.085 8.236-50.402 63.396-125.231 19.301-26.184 38.79-49.61 51.606-64.506 12.761 14.83 32.142 38.126 51.404 64.236 55.332 75.006 63.594 111.391 63.594 125.501 0 63.615-51.589 118-115 118z"/></svg>