<svg width="64" xmlns="http://www.w3.org/2000/svg" height="64"><path fill="#1D1D1B" d="M45.598 30.602C34.113 10.021 33.688 2.882 33.681 2.694A2.021 2.021 0 0031.67.693h-.012c-.561 0-1.068.231-1.434.601a1.975 1.975 0 00-.667 1.397c-.002.069-.332 7.152-11.917 27.912l-.004.011-.007.008c-1.942 3.571-4.175 8.281-4.175 13.042C13.455 54.877 21.604 64 31.619 64s18.164-9.123 18.164-20.338c0-4.761-2.232-9.471-4.175-13.042l-.006-.008-.004-.01zM31.619 59.956c-7.786 0-14.119-7.309-14.119-16.293 0-3.841 1.959-7.941 3.671-11.09 5.707-10.224 8.777-17.239 10.448-21.915 1.671 4.675 4.741 11.69 10.448 21.915 1.712 3.149 3.671 7.249 3.671 11.09 0 8.983-6.333 16.293-14.119 16.293z"/></svg>