<svg height="512" width="512" xmlns="http://www.w3.org/2000/svg"><path d="M440.594 153.053c-33.986-46.069-67.433-82.718-68.84-84.256L357 52.677l-14.754 16.121c-.933 1.02-15.961 17.489-35.888 41.897-20.029-24.578-35.045-41.054-35.803-41.883L255.79 52.647l-14.766 16.164c-.92 1.007-15.554 17.071-35.072 40.975-20.147-24.647-35.258-41.174-36.013-41.999L155.194 51.7 140.45 67.787c-1.409 1.538-34.904 38.186-68.939 84.255C23.391 217.176 0 268.018 0 302.3c0 81.32 69.62 157 155.194 157 16.772 0 33.213-2.662 48.962-7.904 16.157 5.758 33.535 8.904 51.634 8.904 17.265 0 34.229-2.839 50.421-8.438.063-.022.12-.051.182-.074 15.868 5.51 32.893 8.512 50.607 8.512 85.467 0 155-72.33 155-158 0-34.277-23.357-84.115-71.406-149.247zM40 302.3c0-14.082 8.248-51.395 63.484-126.22 19.345-26.206 38.877-49.648 51.712-64.542a1191.626 1191.626 0 0125.384 30.466 993.746 993.746 0 00-8.272 11.064c-47.959 65.128-71.272 114.962-71.272 149.233 0 45.159 19.295 88.504 50.037 116.918C89.456 417.036 40 360.182 40 302.3zm101 0c0-14.089 8.257-50.413 63.318-125.245 19.246-26.157 38.681-49.564 51.475-64.462a1192.813 1192.813 0 0125.188 30.334 982.175 982.175 0 00-7.575 10.126C225.357 218.185 202 268.023 202 302.3c0 45.717 19.804 89.512 51.26 117.968C191.148 418.91 141 365.064 141 302.3zm216 118c-63.411 0-115-54.386-115-118 0-14.085 8.236-50.402 63.396-125.231 19.301-26.184 38.79-49.61 51.606-64.506 12.761 14.83 32.142 38.126 51.404 64.236C463.738 251.805 472 288.19 472 302.3c0 63.615-51.589 118-115 118z"/></svg>