<svg xmlns="http://www.w3.org/2000/svg" viewBox="0 0 511.999 511.999"><path d="M510.875 411.229l-72.271-144.552 1.354-2.729A76.696 76.696 0 00448 229.844c0-20.073-8.146-39.729-22.333-53.938l-74.958-74.948C340.625 90.885 327.25 85.333 313 85.333h-19.958c-19.931 0-37.763 10.949-47.04 28.507L165.48 65.521A10.544 10.544 0 00160.001 64H32a10.671 10.671 0 00-9.542 5.896L1.125 112.562a10.696 10.696 0 00.458 10.375A10.716 10.716 0 0010.667 128h135.604l70.457 44.023-2.27 4.539a10.674 10.674 0 00.667 10.688 62.399 62.399 0 016.021 57.833l-7.042 17.625a10.663 10.663 0 001.021 9.875l42.667 64a10.67 10.67 0 008.875 4.75h4.083l50.375 100.771a10.671 10.671 0 009.542 5.896h128a10.7 10.7 0 004.771-1.125l42.667-21.333c5.27-2.636 7.395-9.042 4.77-14.313zM154.979 108.291a10.594 10.594 0 00-5.646-1.625H27.917l10.667-21.333h118.458l79.255 47.552-9.991 19.983-71.327-44.577zM337.25 426.666l-44.878-89.773 35.71-11.901 6.584 6.039c17.792 16.313 28 39.51 28 63.635a10.66 10.66 0 0010.667 10.667A10.66 10.66 0 00384 394.666c0-29.16-12.15-57.064-33.079-77.286l17.767-5.922 70.891 115.208H337.25zm125.383-3.243l-80.216-130.35c-2.604-4.219-7.813-6.104-12.458-4.521L275.615 320h-3.24l-36.396-54.583 4.958-12.406a83.667 83.667 0 00-4.75-72.198l28.229-56.458c5.458-10.906 16.417-17.688 28.625-17.688H313c8.417 0 16.667 3.417 22.625 9.375l74.958 74.948c10.229 10.229 16.083 24.396 16.083 38.854 0 8.469-2 16.979-5.792 24.563l-3.75 7.479a10.7 10.7 0 000 9.552L487.02 411.23l-24.387 12.193z"/><path d="M330.667 170.666c-29.417 0-53.333 23.927-53.333 53.333s23.917 53.333 53.333 53.333S384 253.406 384 224s-23.917-53.334-53.333-53.334zm0 85.334c-17.646 0-32-14.354-32-32s14.354-32 32-32 32 14.354 32 32-14.354 32-32 32zM45 238.666c-4.604 5.76-45 57.26-45 92C0 360.073 23.917 384 53.333 384s53.333-23.927 53.333-53.333c0-34.74-40.396-86.24-45-92-4.041-5.063-12.624-5.063-16.666-.001zm8.333 124c-17.646 0-32-14.354-32-32 0-18.594 18.792-49.031 32-67.563 13.208 18.51 32 48.938 32 67.563 0 17.646-14.354 32-32 32z"/></svg>