<?xml version="1.0" encoding="iso-8859-1"?>
<!-- Generator: Adobe Illustrator 19.0.0, SVG Export Plug-In . SVG Version: 6.00 Build 0)  -->
<svg version="1.1" id="Layer_1" xmlns="http://www.w3.org/2000/svg" xmlns:xlink="http://www.w3.org/1999/xlink" x="0px" y="0px"
	 viewBox="0 0 511.999 511.999" style="enable-background:new 0 0 511.999 511.999;" xml:space="preserve">
<g>
	<g>
		<g>
			<path d="M510.875,411.229l-72.271-144.552l1.354-2.729c5.271-10.552,8.042-22.344,8.042-34.104
				c0-20.073-8.146-39.729-22.333-53.938l-74.958-74.948C340.625,90.885,327.25,85.333,313,85.333h-19.958
				c-19.931,0-37.763,10.949-47.04,28.507l-80.522-48.319c-1.646-1-3.542-1.521-5.479-1.521H32c-4.042,0-7.729,2.281-9.542,5.896
				L1.125,112.562c-1.646,3.302-1.479,7.229,0.458,10.375C3.542,126.083,6.979,128,10.667,128h135.604l70.457,44.023l-2.27,4.539
				c-1.708,3.427-1.458,7.5,0.667,10.688c11.417,17.125,13.667,38.74,6.021,57.833l-7.042,17.625
				c-1.313,3.26-0.917,6.958,1.021,9.875l42.667,64c1.979,2.969,5.313,4.75,8.875,4.75h4.083l50.375,100.771
				c1.813,3.615,5.5,5.896,9.542,5.896h128c1.646,0,3.292-0.385,4.771-1.125l42.667-21.333
				C511.375,422.906,513.5,416.5,510.875,411.229z M154.979,108.291c-1.688-1.063-3.646-1.625-5.646-1.625H27.917l10.667-21.333
				h118.458l79.255,47.552l-9.991,19.983L154.979,108.291z M337.25,426.666l-44.878-89.773l35.71-11.901l6.584,6.039
				c17.792,16.313,28,39.51,28,63.635c0,5.896,4.771,10.667,10.667,10.667c5.896,0,10.667-4.771,10.667-10.667
				c0-29.16-12.15-57.064-33.079-77.286l17.767-5.922l70.891,115.208H337.25z M462.633,423.423l-80.216-130.35
				c-2.604-4.219-7.813-6.104-12.458-4.521L275.615,320h-3.24l-36.396-54.583l4.958-12.406c9.479-23.646,7.646-50.188-4.75-72.198
				l28.229-56.458c5.458-10.906,16.417-17.688,28.625-17.688H313c8.417,0,16.667,3.417,22.625,9.375l74.958,74.948
				c10.229,10.229,16.083,24.396,16.083,38.854c0,8.469-2,16.979-5.792,24.563l-3.75,7.479c-1.5,3.01-1.5,6.542,0,9.552
				l69.896,139.792L462.633,423.423z"/>
			<path d="M330.667,170.666c-29.417,0-53.333,23.927-53.333,53.333s23.917,53.333,53.333,53.333S384,253.406,384,224
				S360.083,170.666,330.667,170.666z M330.667,256c-17.646,0-32-14.354-32-32s14.354-32,32-32c17.646,0,32,14.354,32,32
				S348.313,256,330.667,256z"/>
			<path d="M45,238.666c-4.604,5.76-45,57.26-45,92C0,360.073,23.917,384,53.333,384s53.333-23.927,53.333-53.333
				c0-34.74-40.396-86.24-45-92C57.625,233.604,49.042,233.604,45,238.666z M53.333,362.666c-17.646,0-32-14.354-32-32
				c0-18.594,18.792-49.031,32-67.563c13.208,18.51,32,48.938,32,67.563C85.333,348.312,70.979,362.666,53.333,362.666z"/>
		</g>
	</g>
</g>
<g>
</g>
<g>
</g>
<g>
</g>
<g>
</g>
<g>
</g>
<g>
</g>
<g>
</g>
<g>
</g>
<g>
</g>
<g>
</g>
<g>
</g>
<g>
</g>
<g>
</g>
<g>
</g>
<g>
</g>
</svg>
