<svg xmlns="http://www.w3.org/2000/svg" viewBox="0 0 512 512" fill="#fff"><path d="M153.6 179.2h-51.2c-14.14 0-25.6 11.46-25.6 25.6v153.6c0 14.14 11.46 25.6 25.6 25.6h51.2c14.14 0 25.6-11.46 25.6-25.6V204.8c0-14.14-11.46-25.6-25.6-25.6zm0 179.2h-51.2V204.8h51.2v153.6z"/><path d="M383.855 162.099A25.604 25.604 0 00364.8 153.6c-7.27 0-14.2 3.089-19.055 8.499-2.739 3.046-7.347 8.303-12.945 14.916V128a25.569 25.569 0 00-7.501-18.099L281.6 66.193V25.6C281.6 11.46 270.14 0 256 0h-76.8c-14.14 0-25.6 11.46-25.6 25.6v38.895L35.209 159.206A25.611 25.611 0 0025.6 179.2v307.2c0 14.14 11.46 25.6 25.6 25.6h256c14.14 0 25.6-11.46 25.6-25.6v-30.413c10.266 2.816 20.856 4.813 32 4.813 67.055 0 121.6-54.554 121.6-121.6 0-59.793-85.419-158.012-102.545-177.101zM179.2 25.6H256v25.6h-76.8V25.6zm128 460.8h-256V179.2l128-102.4H256l51.2 51.2v80.905c-29.542 38.861-64 92.305-64 130.295 0 46.106 26.086 85.811 64 106.419V486.4zm57.6-51.2c-53.018 0-96-42.982-96-96s96-160 96-160 96 106.982 96 160-42.982 96-96 96z"/></svg>