<svg height="640" viewBox="0 -108 480 480" width="640" xmlns="http://www.w3.org/2000/svg"><path d="M479.023 92.168l-48-88A8.001 8.001 0 00424 0h-64a8 8 0 00-8 8v8h-16a8 8 0 00-8 8v128h-34.848c23.785-19.137 32.907-51.2 22.75-79.988C305.746 43.222 278.527 23.977 248 24H72c-30.527-.023-57.746 19.223-67.902 48.012C-6.06 100.8 3.062 132.863 26.848 152H0v48a8 8 0 008 8h16v16a8 8 0 008 8h16.8c3.786 18.645 20.177 32.04 39.2 32.04s35.414-13.395 39.2-32.04h17.6c3.786 18.645 20.177 32.04 39.2 32.04s35.414-13.395 39.2-32.04h137.6c3.786 18.645 20.177 32.04 39.2 32.04s35.414-13.395 39.2-32.04H456a8 8 0 008-8v-16h8a8 8 0 008-8V96c0-1.34-.336-2.656-.977-3.832zM368 16h51.246L464 98.04V152h-96zm-24 16h8v120h-8zm-96 8c30.93 0 56 25.07 56 56s-25.07 56-56 56h-42.848a71.83 71.83 0 000-112zM104 96c0-30.93 25.07-56 56-56s56 25.07 56 56-25.07 56-56 56c-30.914-.035-55.965-25.086-56-56zm-88 0c.035-30.914 25.086-55.965 56-56h42.848a71.83 71.83 0 000 112H72c-30.914-.035-55.965-25.086-56-56zm24 112h11.39a39.45 39.45 0 00-2.59 8H40zm48 40c-13.254 0-24-10.746-24-24s10.746-24 24-24 24 10.746 24 24-10.746 24-24 24zm36.61-40h22.78a39.187 39.187 0 00-2.581 8h-17.61a39.45 39.45 0 00-2.59-8zM184 248c-13.254 0-24-10.746-24-24s10.746-24 24-24 24 10.746 24 24-10.746 24-24 24zm36.61-40h142.78a39.187 39.187 0 00-2.581 8h-137.61a39.45 39.45 0 00-2.59-8zM400 248c-13.254 0-24-10.746-24-24s10.746-24 24-24 24 10.746 24 24-10.746 24-24 24zm48-32h-8.8a39.187 39.187 0 00-2.583-8H448zm16-24h-40v.207c-14.129-10.941-33.871-10.941-48 0V192H208v.207c-14.129-10.941-33.871-10.941-48 0V192h-48v.207c-14.129-10.941-33.871-10.941-48 0V192H16v-24h448zm0 0"/><path d="M384 96h56a8.007 8.007 0 006.941-3.992 8.012 8.012 0 00.004-8.008l-32-56A8.008 8.008 0 00408 24h-24a8 8 0 00-8 8v56a8 8 0 008 8zm8-56h11.36l22.855 40H392zM153.023 52.078C148.84 59.528 128 97.391 128 112c0 17.672 14.328 32 32 32s32-14.328 32-32c0-14.61-20.84-52.473-25.023-59.922a8.332 8.332 0 00-13.954 0zM160 128c-8.836 0-16-7.164-16-16a152.373 152.373 0 0116-39.105A152.373 152.373 0 01176 112c0 8.836-7.164 16-16 16zm248 96a8 8 0 11-16 0 8 8 0 0116 0zm-216 0a8 8 0 11-16 0 8 8 0 0116 0zm-96 0a8 8 0 11-16 0 8 8 0 0116 0zm280-112h16v16h-16zm0 0"/></svg>