<svg height="480pt" viewBox="0 -108 480 480" width="480pt" xmlns="http://www.w3.org/2000/svg"><path d="m479.023438 92.167969-48-88c-1.402344-2.570313-4.097657-4.167969-7.023438-4.167969h-64c-4.417969 0-8 3.582031-8 8v8h-16c-4.417969 0-8 3.582031-8 8v128h-34.847656c23.785156-19.136719 32.90625-51.199219 22.75-79.988281-10.15625-28.789063-37.375-48.035157-67.902344-48.011719h-176c-30.527344-.023438-57.746094 19.222656-67.902344 48.011719-10.15625 28.789062-1.035156 60.851562 22.75 79.988281h-26.847656v48c0 4.417969 3.582031 8 8 8h16v16c0 4.417969 3.582031 8 8 8h16.800781c3.785157 18.644531 20.175781 32.039062 39.199219 32.039062s35.414062-13.394531 39.199219-32.039062h17.601562c3.785157 18.644531 20.175781 32.039062 39.199219 32.039062s35.414062-13.394531 39.199219-32.039062h137.601562c3.785157 18.644531 20.175781 32.039062 39.199219 32.039062s35.414062-13.394531 39.199219-32.039062h16.800781c4.417969 0 8-3.582031 8-8v-16h8c4.417969 0 8-3.582031 8-8v-104c0-1.339844-.335938-2.65625-.976562-3.832031zm-111.023438-76.167969h51.246094l44.753906 82.039062v53.960938h-96zm-24 16h8v120h-8zm-96 8c30.929688 0 56 25.070312 56 56s-25.070312 56-56 56h-42.847656c16.972656-13.632812 26.847656-34.230469 26.847656-56s-9.875-42.367188-26.847656-56zm-144 56c0-30.929688 25.070312-56 56-56s56 25.070312 56 56-25.070312 56-56 56c-30.914062-.035156-55.964844-25.085938-56-56zm-88 0c.035156-30.914062 25.085938-55.964844 56-56h42.847656c-16.972656 13.632812-26.847656 34.230469-26.847656 56s9.875 42.367188 26.847656 56h-42.847656c-30.914062-.035156-55.964844-25.085938-56-56zm24 112h11.390625c-1.144531 2.566406-2.015625 5.25-2.589844 8h-8.800781zm48 40c-13.253906 0-24-10.746094-24-24s10.746094-24 24-24 24 10.746094 24 24-10.746094 24-24 24zm36.609375-40h22.78125c-1.144531 2.566406-2.011719 5.25-2.582031 8h-17.609375c-.574219-2.75-1.445313-5.433594-2.589844-8zm59.390625 40c-13.253906 0-24-10.746094-24-24s10.746094-24 24-24 24 10.746094 24 24-10.746094 24-24 24zm36.609375-40h142.78125c-1.144531 2.566406-2.011719 5.25-2.582031 8h-137.609375c-.574219-2.75-1.445313-5.433594-2.589844-8zm179.390625 40c-13.253906 0-24-10.746094-24-24s10.746094-24 24-24 24 10.746094 24 24-10.746094 24-24 24zm48-32h-8.800781c-.570313-2.75-1.4375-5.433594-2.582031-8h11.382812zm16-24h-40v.207031c-14.128906-10.941406-33.871094-10.941406-48 0v-.207031h-168v.207031c-14.128906-10.941406-33.871094-10.941406-48 0v-.207031h-48v.207031c-14.128906-10.941406-33.871094-10.941406-48 0v-.207031h-48v-24h448zm0 0"/><path d="m384 96h56c2.859375.003906 5.507812-1.515625 6.941406-3.992188 1.429688-2.476562 1.433594-5.53125.003906-8.007812l-32-56c-1.433593-2.480469-4.082031-4.003906-6.945312-4h-24c-4.417969 0-8 3.582031-8 8v56c0 4.417969 3.582031 8 8 8zm8-56h11.359375l22.855469 40h-34.214844zm0 0"/><path d="m153.023438 52.078125c-4.183594 7.449219-25.023438 45.3125-25.023438 59.921875 0 17.671875 14.328125 32 32 32s32-14.328125 32-32c0-14.609375-20.839844-52.472656-25.023438-59.921875-1.539062-2.355469-4.160156-3.777344-6.976562-3.777344s-5.4375 1.421875-6.976562 3.777344zm6.976562 75.921875c-8.835938 0-16-7.164062-16-16 3.492188-13.714844 8.875-26.875 16-39.105469 7.125 12.230469 12.507812 25.390625 16 39.105469 0 8.835938-7.164062 16-16 16zm0 0"/><path d="m408 224c0 4.417969-3.582031 8-8 8s-8-3.582031-8-8 3.582031-8 8-8 8 3.582031 8 8zm0 0"/><path d="m192 224c0 4.417969-3.582031 8-8 8s-8-3.582031-8-8 3.582031-8 8-8 8 3.582031 8 8zm0 0"/><path d="m96 224c0 4.417969-3.582031 8-8 8s-8-3.582031-8-8 3.582031-8 8-8 8 3.582031 8 8zm0 0"/><path d="m376 112h16v16h-16zm0 0"/></svg>