<svg width="27" height="23" fill="none" xmlns="http://www.w3.org/2000/svg"><path d="M25 5.773l.914.405.624-1.405H25v1zM20.46 16v1h.65l.263-.594L20.46 16zM8.134 16l-.992.126.111.874h.881v-1zM6.838 5.773l.992-.126-.05-.396L7.47 5l-.632.774zm5.838 1H25v-2H12.676v2zm11.41-1.406l-4.54 10.227 1.827.812 4.541-10.227-1.828-.812zM20.459 15H8.135v2H20.46v-2zm-11.332.874L7.83 5.647l-1.984.252 1.297 10.227 1.984-.252zM7.471 5L1.633.226.367 1.774l5.838 4.773L7.47 4.999z" fill="#000"/><circle cx="19" cy="21" r="2" fill="#000"/><circle cx="10" cy="21" r="2" fill="#000"/></svg>