<svg xmlns="http://www.w3.org/2000/svg" xmlns:xlink="http://www.w3.org/1999/xlink"><symbol id="icon-close-white" viewBox="0 0 18 18">
  <polygon fill="#ffffff" points="18,1.3 16.7,0 9,7.7 1.3,0 0,1.3 7.7,9 0,16.7 1.3,18 9,10.3 16.7,18 18,16.7 10.3,9 "/>
</symbol><symbol id="icon-close" viewBox="0 0 18 18">
  <polygon points="18,1.3 16.7,0 9,7.7 1.3,0 0,1.3 7.7,9 0,16.7 1.3,18 9,10.3 16.7,18 18,16.7 10.3,9 "/>
</symbol><symbol id="icon-mobile-menu-white" viewBox="0 0 24 18">
  <rect fill="#ffffff" y="16" width="24" height="2"/>
  <rect fill="#ffffff" y="8" width="24" height="2"/>
  <rect fill="#ffffff" width="24" height="2"/>
</symbol><symbol id="icon-mobile-menu" viewBox="0 0 24 18">
  <rect y="16" width="24" height="2"/>
  <rect y="8" width="24" height="2"/>
  <rect width="24" height="2"/>
</symbol></svg>