<svg xmlns="http://www.w3.org/2000/svg" xmlns:xlink="http://www.w3.org/1999/xlink"><symbol id="drop-long" viewBox="0 0 64 64">
  <g>
    <path fill="#1D1D1B" d="m45.598,30.602c-11.485-20.581-11.91-27.72-11.917-27.908-0.012-1.102-0.904-1.996-2.011-2.001-0.004,0-0.008,0-0.012,0-0.561,0-1.068,0.231-1.434,0.601-0.387,0.353-0.649,0.839-0.667,1.397-0.002,0.069-0.332,7.152-11.917,27.912-0.002,0.004-0.002,0.008-0.004,0.011s-0.004,0.005-0.007,0.008c-1.942,3.571-4.175,8.281-4.175,13.042 0.001,11.213 8.15,20.336 18.165,20.336s18.164-9.123 18.164-20.338c0-4.761-2.232-9.471-4.175-13.042-0.002-0.003-0.004-0.005-0.006-0.008-0.002-0.003-0.002-0.007-0.004-0.01zm-13.979,29.354c-7.786,0-14.119-7.309-14.119-16.293 0-3.841 1.959-7.941 3.671-11.09 5.707-10.224 8.777-17.239 10.448-21.915 1.671,4.675 4.741,11.69 10.448,21.915 1.712,3.149 3.671,7.249 3.671,11.09 0,8.983-6.333,16.293-14.119,16.293z"/>
  </g>
</symbol><symbol id="drop-three" viewBox="0 0 512 512"><path d="m440.594 153.053c-33.986-46.069-67.433-82.718-68.84-84.256l-14.754-16.12-14.754 16.121c-.933 1.02-15.961 17.489-35.888 41.897-20.029-24.578-35.045-41.054-35.803-41.883l-14.765-16.165-14.766 16.164c-.92 1.007-15.554 17.071-35.072 40.975-20.147-24.647-35.258-41.174-36.013-41.999l-14.745-16.087-14.744 16.087c-1.409 1.538-34.904 38.186-68.939 84.255-48.12 65.134-71.511 115.976-71.511 150.258 0 81.32 69.62 157 155.194 157 16.772 0 33.213-2.662 48.962-7.904 16.157 5.758 33.535 8.904 51.634 8.904 17.265 0 34.229-2.839 50.421-8.438.063-.022.12-.051.182-.074 15.868 5.51 32.893 8.512 50.607 8.512 85.467 0 155-72.33 155-158 0-34.277-23.357-84.115-71.406-149.247zm-400.594 149.247c0-14.082 8.248-51.395 63.484-126.22 19.345-26.206 38.877-49.648 51.712-64.542 6.894 7.998 15.715 18.456 25.384 30.466-2.743 3.619-5.505 7.306-8.272 11.064-47.959 65.128-71.272 114.962-71.272 149.233 0 45.159 19.295 88.504 50.037 116.918-61.617-2.183-111.073-59.037-111.073-116.919zm101 0c0-14.089 8.257-50.413 63.318-125.245 19.246-26.157 38.681-49.564 51.475-64.462 6.844 7.968 15.59 18.375 25.188 30.334-2.514 3.318-5.042 6.692-7.575 10.126-48.049 65.132-71.406 114.97-71.406 149.247 0 45.717 19.804 89.512 51.26 117.968-62.112-1.358-112.26-55.204-112.26-117.968zm216 118c-63.411 0-115-54.386-115-118 0-14.085 8.236-50.402 63.396-125.231 19.301-26.184 38.79-49.61 51.606-64.506 12.761 14.83 32.142 38.126 51.404 64.236 55.332 75.006 63.594 111.391 63.594 125.501 0 63.615-51.589 118-115 118z"/></symbol><symbol id="drop" viewBox="0 0 76.977 76.977">
<g>
	<path d="M38.489,76.977c-15.54,0-28.183-12.643-28.183-28.182c0-14.53,23.185-44.307,25.828-47.654C36.703,0.421,37.571,0,38.488,0
		c0.917,0,1.785,0.42,2.354,1.141c2.644,3.348,25.828,33.124,25.828,47.654C66.671,64.334,54.029,76.977,38.489,76.977z
		 M38.489,7.917c-7.847,10.409-22.183,31.389-22.183,40.878c0,12.231,9.951,22.182,22.183,22.182s22.183-9.95,22.183-22.182
		C60.671,39.306,46.335,18.326,38.489,7.917z"/>
	<path d="M38.489,64.981c-1.657,0-3-1.343-3-3s1.343-3,3-3c5.616,0,10.186-4.567,10.186-10.183c0-1.657,1.343-3,3-3
		c1.656,0,3,1.343,3,3C54.674,57.721,47.413,64.981,38.489,64.981z"/>
</g>
<g>
</g>
<g>
</g>
<g>
</g>
<g>
</g>
<g>
</g>
<g>
</g>
<g>
</g>
<g>
</g>
<g>
</g>
<g>
</g>
<g>
</g>
<g>
</g>
<g>
</g>
<g>
</g>
<g>
</g>
</symbol><symbol id="full-size" viewBox="0 0 215.35 215.35">
<g>
	<path d="M7.5,65.088c4.143,0,7.5-3.358,7.5-7.5V25.61l48.305,48.295c1.465,1.464,3.384,2.196,5.303,2.196
		c1.92,0,3.84-0.732,5.304-2.197c2.929-2.929,2.929-7.678-0.001-10.606L25.604,15.002h31.985c4.142,0,7.5-3.358,7.5-7.5
		c0-4.142-3.357-7.5-7.5-7.5H7.5c-4.143,0-7.5,3.358-7.5,7.5v50.087C0,61.73,3.357,65.088,7.5,65.088z"/>
	<path d="M207.85,150.262c-4.143,0-7.5,3.358-7.5,7.5v31.979l-49.792-49.792c-2.93-2.929-7.678-2.929-10.607,0
		c-2.929,2.929-2.929,7.678,0,10.606l49.791,49.791h-31.977c-4.143,0-7.5,3.358-7.5,7.5c0,4.142,3.357,7.5,7.5,7.5h50.086
		c4.143,0,7.5-3.358,7.5-7.5v-50.084C215.35,153.62,211.992,150.262,207.85,150.262z"/>
	<path d="M64.792,139.949L15.005,189.74v-31.978c0-4.142-3.357-7.5-7.5-7.5s-7.5,3.358-7.5,7.5v50.086c0,4.142,3.357,7.5,7.5,7.5
		h50.084c4.142,0,7.5-3.358,7.5-7.5s-3.357-7.5-7.5-7.5H25.611l49.788-49.793c2.929-2.929,2.929-7.678-0.001-10.607
		C72.471,137.02,67.722,137.02,64.792,139.949z"/>
	<path d="M207.85,0.002h-50.086c-4.143,0-7.5,3.358-7.5,7.5c0,4.142,3.357,7.5,7.5,7.5h31.979l-48.298,48.301
		c-2.929,2.929-2.929,7.678,0.001,10.607c1.464,1.464,3.384,2.196,5.303,2.196c1.919,0,3.839-0.733,5.304-2.197l48.298-48.301v31.98
		c0,4.142,3.357,7.5,7.5,7.5c4.143,0,7.5-3.358,7.5-7.5V7.502C215.35,3.359,211.992,0.002,207.85,0.002z"/>
</g>
<g>
</g>
<g>
</g>
<g>
</g>
<g>
</g>
<g>
</g>
<g>
</g>
<g>
</g>
<g>
</g>
<g>
</g>
<g>
</g>
<g>
</g>
<g>
</g>
<g>
</g>
<g>
</g>
<g>
</g>
</symbol><symbol id="icon-close-white" viewBox="0 0 18 18">
  <polygon fill="#ffffff" points="18,1.3 16.7,0 9,7.7 1.3,0 0,1.3 7.7,9 0,16.7 1.3,18 9,10.3 16.7,18 18,16.7 10.3,9 "/>
</symbol><symbol id="icon-close" viewBox="0 0 18 18">
  <polygon points="18,1.3 16.7,0 9,7.7 1.3,0 0,1.3 7.7,9 0,16.7 1.3,18 9,10.3 16.7,18 18,16.7 10.3,9 "/>
</symbol><symbol id="icon-mobile-menu-white" viewBox="0 0 24 18">
  <rect fill="#ffffff" y="16" width="24" height="2"/>
  <rect fill="#ffffff" y="8" width="24" height="2"/>
  <rect fill="#ffffff" width="24" height="2"/>
</symbol><symbol id="icon-mobile-menu" viewBox="0 0 24 18">
  <rect y="16" width="24" height="2"/>
  <rect y="8" width="24" height="2"/>
  <rect width="24" height="2"/>
</symbol><symbol id="icon-tick" viewBox="0 0 21.1 15.5">
  <polygon fill="#1a2d4a" points="20.1,0 7.7,13.3 1,6.1 0,7.2 7.6,15.4 7.7,15.5 21,1.2 21.1,1.1 "/>
</symbol><symbol id="magnifying-glass" viewBox="0 0 512 512">
  <g>
    <path d="M495,466.2L377.2,348.4c29.2-35.6,46.8-81.2,46.8-130.9C424,103.5,331.5,11,217.5,11C103.4,11,11,103.5,11,217.5   S103.4,424,217.5,424c49.7,0,95.2-17.5,130.8-46.7L466.1,495c8,8,20.9,8,28.9,0C503,487.1,503,474.1,495,466.2z M217.5,382.9   C126.2,382.9,52,308.7,52,217.5S126.2,52,217.5,52C308.7,52,383,126.3,383,217.5S308.7,382.9,217.5,382.9z"/>
  </g>
</symbol><symbol id="oil" viewBox="0 0 512 512">
<g>
	<g>
		<path d="M153.6,179.2h-51.2c-14.14,0-25.6,11.46-25.6,25.6v153.6c0,14.14,11.46,25.6,25.6,25.6h51.2c14.14,0,25.6-11.46,25.6-25.6
			V204.8C179.2,190.66,167.74,179.2,153.6,179.2z M153.6,358.4h-51.2V204.8h51.2V358.4z"/>
	</g>
</g>
<g>
	<g>
		<path d="M383.855,162.099c-4.855-5.41-11.785-8.499-19.055-8.499c-7.27,0-14.2,3.089-19.055,8.499
			c-2.739,3.046-7.347,8.303-12.945,14.916V128c0-6.793-2.697-13.303-7.501-18.099L281.6,66.193V25.6C281.6,11.46,270.14,0,256,0
			h-76.8c-14.14,0-25.6,11.46-25.6,25.6v38.895L35.209,159.206c-6.076,4.864-9.609,12.22-9.609,19.994v307.2
			c0,14.14,11.46,25.6,25.6,25.6h256c14.14,0,25.6-11.46,25.6-25.6v-30.413c10.266,2.816,20.856,4.813,32,4.813
			c67.055,0,121.6-54.554,121.6-121.6C486.4,279.407,400.981,181.188,383.855,162.099z M179.2,25.6H256v25.6h-76.8V25.6z
			 M307.2,486.4h-256V179.2l128-102.4H256l51.2,51.2v80.905c-29.542,38.861-64,92.305-64,130.295c0,46.106,26.086,85.811,64,106.419
			V486.4z M364.8,435.2c-53.018,0-96-42.982-96-96c0-53.018,96-160,96-160s96,106.982,96,160
			C460.8,392.218,417.818,435.2,364.8,435.2z"/>
	</g>
</g>
<g>
</g>
<g>
</g>
<g>
</g>
<g>
</g>
<g>
</g>
<g>
</g>
<g>
</g>
<g>
</g>
<g>
</g>
<g>
</g>
<g>
</g>
<g>
</g>
<g>
</g>
<g>
</g>
<g>
</g>
</symbol><symbol id="place" viewBox="0 0 512 512">
<g>
	<g>
		<path d="M425.951,89.021C386.864,32.451,324.917,0,256.006,0S125.148,32.451,86.061,89.021
			c-38.895,56.284-47.876,127.541-24.072,190.496c6.367,17.192,16.488,33.895,30.01,49.547l150.378,176.634
			c3.401,3.998,8.384,6.302,13.629,6.302c5.245,0,10.228-2.303,13.629-6.302l150.336-176.586
			c13.582-15.742,23.69-32.427,30.004-49.481C473.827,216.562,464.846,145.305,425.951,89.021z M416.451,267.093
			c-4.869,13.158-12.818,26.167-23.613,38.68c-0.03,0.03-0.06,0.06-0.084,0.096L256.006,466.487L119.174,305.768
			c-10.789-12.502-18.738-25.51-23.655-38.794c-19.686-52.065-12.215-110.981,19.991-157.592
			c32.307-46.76,83.519-73.578,140.496-73.578c56.976,0,108.182,26.817,140.49,73.578
			C428.708,155.993,436.185,214.909,416.451,267.093z"/>
	</g>
</g>
<g>
	<g>
		<path d="M256.006,106.219c-55.276,0-100.252,44.97-100.252,100.252s44.97,100.252,100.252,100.252s100.252-44.97,100.252-100.252
			C356.258,151.195,311.282,106.219,256.006,106.219z M256.006,270.918c-35.536,0-64.448-28.912-64.448-64.448
			c0-35.536,28.912-64.448,64.448-64.448c35.536,0,64.448,28.912,64.448,64.448S291.542,270.918,256.006,270.918z"/>
	</g>
</g>
<g>
</g>
<g>
</g>
<g>
</g>
<g>
</g>
<g>
</g>
<g>
</g>
<g>
</g>
<g>
</g>
<g>
</g>
<g>
</g>
<g>
</g>
<g>
</g>
<g>
</g>
<g>
</g>
<g>
</g>
</symbol><symbol id="shop" viewBox="0 0 27 23">
<path d="M25 5.77273L25.914 6.1785L26.5381 4.77273H25V5.77273ZM20.4595 16V17H21.1096L21.3734 16.4058L20.4595 16ZM8.13513 16L7.14308 16.1258L7.25397 17H8.13513V16ZM6.83784 5.77273L7.82989 5.64689L7.77968 5.25107L7.47078 4.99853L6.83784 5.77273ZM12.6757 6.77273H25V4.77273H12.6757V6.77273ZM24.086 5.36696L19.5455 15.5942L21.3734 16.4058L25.914 6.1785L24.086 5.36696ZM20.4595 15H8.13513V17H20.4595V15ZM9.12719 15.8742L7.82989 5.64689L5.84579 5.89857L7.14308 16.1258L9.12719 15.8742ZM7.47078 4.99853L1.63295 0.225803L0.367055 1.7742L6.20489 6.54692L7.47078 4.99853Z" fill="black"/>
<circle cx="19" cy="21" r="2" fill="black"/>
<circle cx="10" cy="21" r="2" fill="black"/>
</symbol></svg>