<svg height="512pt" viewBox="0 -29 512 512" width="512pt" xmlns="http://www.w3.org/2000/svg"><path d="M502 333.86h-18.066v-9.977c0-5.524-4.48-10-10-10h-39.352c18.191-15.445 29.77-38.461 29.77-64.14v-83.571c0-46.395-37.747-84.14-84.137-84.14h-72.653V53.808c0-5.524-4.476-10-10-10h-5.867V20.164a9.997 9.997 0 00-5.53-8.95C285.245 10.759 263.405 0 238.686 0c-26.773 0-46.98 10.934-47.828 11.398a10.007 10.007 0 00-5.183 8.766V43.81h-5.867c-5.524 0-10 4.476-10 10v28.22H84.14C37.742 82.031 0 119.777 0 166.171v83.571c0 25.68 11.574 48.696 29.77 64.14H10c-5.523 0-10 4.477-10 10v39.954c0 5.523 4.477 10 10 10h32.813c-6.461 8.492-10.31 19.078-10.31 30.55 0 27.876 22.677 50.555 50.552 50.555 16.586 0 31.332-8.03 40.554-20.406 9.223 12.375 23.97 20.406 40.551 20.406 27.875 0 50.555-22.68 50.555-50.554 0-11.473-3.848-22.059-10.309-30.551h75.805c-6.465 8.492-10.313 19.078-10.313 30.55 0 27.876 22.68 50.555 50.555 50.555 16.582 0 31.328-8.03 40.55-20.406 9.227 12.375 23.97 20.406 40.556 20.406 27.875 0 50.554-22.68 50.554-50.554 0-11.473-3.847-22.059-10.312-30.551h32.133c5.52 0 10-4.477 10-10v-9.977H502c5.523 0 10-4.476 10-10s-4.477-10-10-10zm-57.648-167.688v83.57c0 35.367-28.774 64.14-64.137 64.14h-100.79v-192.03c0-5.524-4.476-10-10-10-5.519 0-10 4.476-10 10v20.136h-41.48v-20.136c0-5.524-4.476-10-10-10-5.52 0-10 4.476-10 10v192.03H94.141v-211.85h276.074v130.94c0 5.52 4.476 10 10 10 5.52 0 10-4.48 10-10V102.817c30.629 4.817 54.137 31.391 54.137 63.356zm-226.407 147.71v-23.484h41.48v23.485zm41.48-86.288h-41.48v-22.805h41.48zm-41.48 20h41.48v22.804h-41.48zm41.48-62.805h-41.48v-22.8h41.48zm-53.75-158.203c6.56-2.648 18.712-6.586 33.013-6.586 13.328 0 26.03 4.059 33.007 6.758v17.05h-66.02zM189.81 63.809h97.754V82.03H189.81zM20 249.742v-83.57c0-31.965 23.508-58.54 54.14-63.356v210.282C43.509 308.28 20 281.707 20 249.742zm63.055 185.196c-16.844 0-30.551-13.704-30.551-30.551 0-16.809 13.644-30.489 30.437-30.551h.23c16.794.062 30.438 13.742 30.438 30.55 0 16.848-13.707 30.551-30.554 30.551zm40.246-61.102h.617c-.102.137-.207.266-.309.402-.101-.136-.207-.265-.308-.402zm71.414 30.55c0 16.848-13.707 30.551-30.555 30.551s-30.55-13.703-30.55-30.55c0-16.809 13.644-30.489 30.437-30.551h.23c16.793.062 30.438 13.742 30.438 30.55zm125.738 30.551c-16.848 0-30.555-13.703-30.555-30.55 0-16.809 13.645-30.489 30.438-30.551h.23c16.793.062 30.438 13.742 30.438 30.55 0 16.848-13.703 30.551-30.55 30.551zm40.242-61.101h.618c-.102.137-.208.266-.31.402-.1-.136-.206-.265-.308-.402zm71.414 30.55c0 16.848-13.703 30.551-30.55 30.551s-30.555-13.703-30.555-30.55c0-16.809 13.644-30.489 30.437-30.551h.23c16.798.062 30.438 13.742 30.438 30.55zm31.825-50.55h-62.262c-.04 0-.074-.004-.113-.004-.04 0-.079.004-.118.004h-80.875c-.039 0-.074-.004-.113-.004s-.078.004-.113.004H164.277c-.039 0-.078-.004-.113-.004-.039 0-.078.004-.117.004H83.172c-.04 0-.078-.004-.117-.004-.035 0-.075.004-.114.004H20v-19.953h443.934zm0 0"/><path d="M92.29 400.559c-1.61-3.868-5.58-6.387-9.77-6.16-4.102.222-7.723 3.027-8.98 6.93-1.278 3.968.108 8.468 3.433 10.991 3.336 2.535 7.96 2.727 11.492.47 4.031-2.583 5.637-7.81 3.824-12.231zm69.92-5.981c-4.038.82-7.233 4.106-7.91 8.176-.695 4.176 1.415 8.46 5.15 10.445 3.585 1.91 8.073 1.442 11.179-1.187 3.184-2.696 4.367-7.242 2.89-11.149-1.703-4.511-6.57-7.238-11.308-6.285zm167.478 5.981c-1.657-3.98-5.82-6.524-10.125-6.133-4.137.375-7.68 3.36-8.762 7.367-1.07 3.965.469 8.34 3.828 10.723 3.34 2.37 7.871 2.472 11.305.23 3.964-2.594 5.578-7.808 3.754-12.187zm69.914-5.981c-4.09.844-7.325 4.195-7.934 8.34-.602 4.086 1.43 8.2 5.035 10.203 3.652 2.031 8.305 1.54 11.45-1.215 3.1-2.715 4.199-7.191 2.757-11.039-1.691-4.523-6.57-7.242-11.308-6.289zM389.45 272.2c-1.579-3.856-5.579-6.38-9.735-6.157-4.067.215-7.649 2.914-8.965 6.766-1.36 3.98.004 8.539 3.336 11.113 3.27 2.523 7.887 2.781 11.398.594 4.102-2.551 5.825-7.852 3.965-12.317zm0 0"/></svg>