<svg height="512pt" viewBox="0 -29 512 512" width="512pt" xmlns="http://www.w3.org/2000/svg"><path d="m502 333.859375h-18.066406v-9.976563c0-5.523437-4.480469-10-10-10h-39.351563c18.191407-15.445312 29.769531-38.460937 29.769531-64.140624v-83.570313c0-46.394531-37.746093-84.140625-84.136718-84.140625h-72.652344v-28.222656c0-5.523438-4.476562-10-10-10h-5.867188v-23.644532c0-3.792968-2.140624-7.257812-5.53125-8.949218-.917968-.457032-22.757812-11.214844-47.476562-11.214844-26.773438 0-46.980469 10.933594-47.828125 11.398438-3.195313 1.757812-5.183594 5.117187-5.183594 8.765624v23.644532h-5.867187c-5.523438 0-10 4.476562-10 10v28.222656h-85.667969c-46.398437 0-84.140625 37.746094-84.140625 84.140625v83.570313c0 25.679687 11.574219 48.695312 29.769531 64.140624h-19.769531c-5.523438 0-10 4.476563-10 10v39.953126c0 5.523437 4.476562 10 10 10h32.8125c-6.460938 8.492187-10.308594 19.078124-10.308594 30.550781 0 27.875 22.675782 50.554687 50.550782 50.554687 16.585937 0 31.332031-8.03125 40.554687-20.40625 9.222656 12.375 23.96875 20.40625 40.550781 20.40625 27.875 0 50.554688-22.679687 50.554688-50.554687 0-11.472657-3.847656-22.058594-10.308594-30.550781h75.804688c-6.464844 8.492187-10.3125 19.078124-10.3125 30.550781 0 27.875 22.679687 50.554687 50.554687 50.554687 16.582031 0 31.328125-8.03125 40.550781-20.40625 9.226563 12.375 23.96875 20.40625 40.554688 20.40625 27.875 0 50.554687-22.679687 50.554687-50.554687 0-11.472657-3.847656-22.058594-10.3125-30.550781h32.132813c5.519531 0 10-4.476563 10-10v-9.976563h18.066406c5.523438 0 10-4.476563 10-10s-4.476562-10-10-10zm-57.648438-167.6875v83.570313c0 35.367187-28.773437 64.140624-64.136718 64.140624h-100.789063v-192.03125c0-5.523437-4.476562-10-10-10-5.519531 0-10 4.476563-10 10v20.136719h-41.480469v-20.136719c0-5.523437-4.476562-10-10-10-5.519531 0-10 4.476563-10 10v192.03125h-103.804687v-211.851562h276.074219v130.941406c0 5.519532 4.476562 10 10 10 5.519531 0 10-4.480468 10-10v-130.15625c30.628906 4.816406 54.136718 31.390625 54.136718 63.355469zm-226.40625 147.710937v-23.484374h41.480469v23.484374zm41.480469-86.289062h-41.480469v-22.804688h41.480469zm-41.480469 20h41.480469v22.804688h-41.480469zm41.480469-62.804688h-41.480469v-22.800781h41.480469zm-53.75-158.203124c6.558594-2.648438 18.710938-6.585938 33.011719-6.585938 13.328125 0 26.03125 4.058594 33.007812 6.757812v17.050782h-66.019531zm-15.867187 37.222656h97.753906v18.222656h-97.753906zm-169.808594 185.933594v-83.570313c0-31.964844 23.507812-58.539063 54.140625-63.355469v210.28125c-30.632813-4.816406-54.140625-31.390625-54.140625-63.355468zm63.054688 185.195312c-16.84375 0-30.550782-13.703125-30.550782-30.550781 0-16.808594 13.644532-30.488281 30.4375-30.550781h.230469c16.792969.0625 30.4375 13.742187 30.4375 30.550781 0 16.847656-13.707031 30.550781-30.554687 30.550781zm40.246093-61.101562h.617188c-.101563.136718-.207031.265624-.308594.402343-.101563-.136719-.207031-.265625-.308594-.402343zm71.414063 30.550781c0 16.847656-13.707032 30.550781-30.554688 30.550781s-30.550781-13.703125-30.550781-30.550781c0-16.808594 13.644531-30.488281 30.4375-30.550781h.230469c16.792968.0625 30.4375 13.742187 30.4375 30.550781zm125.738281 30.550781c-16.847656 0-30.554687-13.703125-30.554687-30.550781 0-16.808594 13.644531-30.488281 30.4375-30.550781h.230468c16.792969.0625 30.4375 13.742187 30.4375 30.550781 0 16.847656-13.703125 30.550781-30.550781 30.550781zm40.242187-61.101562h.617188c-.101562.136718-.207031.265624-.308594.402343-.101562-.136719-.207031-.265625-.308594-.402343zm71.414063 30.550781c0 16.847656-13.703125 30.550781-30.550781 30.550781s-30.554688-13.703125-30.554688-30.550781c0-16.808594 13.644532-30.488281 30.4375-30.550781h.230469c16.796875.0625 30.4375 13.742187 30.4375 30.550781zm31.824219-50.550781h-62.261719c-.039063 0-.074219-.003907-.113281-.003907-.039063 0-.078125.003907-.117188.003907h-80.875c-.039062 0-.074218-.003907-.113281-.003907s-.078125.003907-.113281.003907h-156.0625c-.039063 0-.078125-.003907-.113282-.003907-.039062 0-.078124.003907-.117187.003907h-80.875c-.039063 0-.078125-.003907-.117187-.003907-.035157 0-.074219.003907-.113282.003907h-62.941406v-19.953126h443.933594zm0 0"/><path d="m92.289062 400.558594c-1.609374-3.867188-5.578124-6.386719-9.769531-6.160156-4.101562.222656-7.722656 3.027343-8.980469 6.929687-1.277343 3.96875.109376 8.46875 3.433594 10.992187 3.335938 2.535157 7.960938 2.726563 11.492188.46875 4.03125-2.582031 5.636718-7.808593 3.824218-12.230468zm0 0"/><path d="m162.210938 394.578125c-4.039063.820313-7.234376 4.105469-7.910157 8.175781-.695312 4.175782 1.414063 8.460938 5.148438 10.445313 3.585937 1.910156 8.074219 1.441406 11.179687-1.1875 3.183594-2.695313 4.367188-7.242188 2.890625-11.148438-1.703125-4.511719-6.570312-7.238281-11.308593-6.285156zm0 0"/><path d="m329.6875 400.558594c-1.65625-3.980469-5.820312-6.523438-10.125-6.132813-4.136719.375-7.679688 3.359375-8.761719 7.367188-1.070312 3.964843.46875 8.339843 3.828125 10.722656 3.339844 2.371094 7.871094 2.472656 11.304688.230469 3.964844-2.59375 5.578125-7.808594 3.753906-12.1875zm0 0"/><path d="m399.601562 394.578125c-4.089843.84375-7.324218 4.195313-7.933593 8.339844-.601563 4.085937 1.429687 8.199219 5.035156 10.203125 3.652344 2.03125 8.304687 1.539062 11.449219-1.214844 3.101562-2.714844 4.199218-7.191406 2.757812-11.039062-1.691406-4.523438-6.570312-7.242188-11.308594-6.289063zm0 0"/><path d="m389.449219 272.199219c-1.578125-3.855469-5.578125-6.378907-9.734375-6.15625-4.066406.214843-7.648438 2.914062-8.964844 6.765625-1.359375 3.980468.003906 8.539062 3.335938 11.113281 3.269531 2.523437 7.886718 2.78125 11.398437.59375 4.101563-2.550781 5.824219-7.851563 3.964844-12.316406zm0 0"/></svg>